<svg xmlns="http://www.w3.org/2000/svg" width="106" height="32" viewBox="0 0 106 32">
    <path fill="#003D3F" fill-rule="evenodd" d="M6.537.508l9.092 11.27L24.553.509h6.705v30.607H23.55V12.167l-7.204 9.335h-1.275l-7.483-9.39v19.003H0V.508h6.537zm50.38 0v5.635H42.397v6.352H56.31v5.69H42.396v7.406h15.157l-2.297 5.524H34.802V.508h22.116zM59.8 19.733h8.313L63.9 9.62 67.45.508l13.535 30.607h-8.204l-2.616-6.13H57.802l1.997-5.252zm40.237.702h-3.6l-2.22-5.58h11.585v12.32s-2.939 4.31-11.307 4.31c0 0-11.912.227-15.184-9.39 0 0-4.661-13.756 6.261-19.78 0 0 3.94-2.174 9.53-2.177 3.006 0 6.489.627 10.092 2.56V9.22S99.48 5.964 94.439 6.513c0 0-8.423-.61-8.59 9.558 0 0-.606 9.23 9.091 9.063 0 0 2.549.16 5.096-1.054v-3.645z"/>
</svg>
